<?xml version="1.0" standalone="no"?>
<!DOCTYPE svg PUBLIC "-//W3C//DTD SVG 20010904//EN"
 "http://www.w3.org/TR/2001/REC-SVG-20010904/DTD/svg10.dtd">
<svg version="1.0" xmlns="http://www.w3.org/2000/svg"
 width="544.000000pt" height="544.000000pt" viewBox="0 0 544.000000 544.000000"
 preserveAspectRatio="xMidYMid meet">
<metadata>
Created by potrace 1.11, written by Peter Selinger 2001-2013
</metadata>
<g transform="translate(0.000000,544.000000) scale(0.100000,-0.100000)"
fill="#000000" stroke="none">
<path d="M3104 4744 c-55 -11 -141 -50 -234 -105 -32 -20 -529 -306 -602 -348
-18 -10 -105 -60 -193 -111 -88 -51 -234 -135 -325 -187 -91 -52 -219 -126
-285 -165 -137 -79 -205 -118 -255 -144 -19 -11 -37 -22 -40 -25 -3 -3 -36
-23 -75 -44 -113 -62 -142 -82 -203 -145 -74 -76 -150 -224 -166 -323 -3 -20
-10 -56 -16 -79 -10 -44 -7 -344 4 -388 3 -14 8 -41 11 -60 5 -37 8 -50 25
-115 6 -22 12 -47 14 -56 51 -210 206 -535 343 -719 122 -166 215 -268 368
-405 75 -67 240 -170 632 -395 216 -124 414 -237 440 -253 27 -15 70 -39 96
-53 l48 -25 42 24 c23 14 58 34 77 44 19 11 89 52 155 90 66 39 140 81 165 96
25 14 115 65 200 115 85 49 241 139 345 199 105 60 282 163 395 228 459 265
564 325 571 325 34 0 34 8 35 1172 0 794 -3 1143 -10 1152 -6 8 -31 25 -56 39
-25 13 -85 48 -135 77 -49 29 -108 63 -130 75 -23 13 -191 111 -376 217 -314
182 -472 263 -537 274 -15 3 -42 10 -61 15 -48 16 -197 18 -267 3z m261 -85
c22 -6 47 -12 55 -14 31 -6 156 -59 182 -77 14 -10 28 -18 31 -18 3 0 45 -23
94 -51 48 -29 109 -63 134 -78 25 -14 181 -105 347 -201 166 -96 311 -179 322
-185 11 -5 20 -12 20 -15 0 -3 -26 -18 -58 -35 -31 -16 -59 -32 -62 -36 -3 -3
-30 -19 -60 -36 -30 -17 -127 -72 -215 -123 -88 -51 -198 -115 -244 -141 -46
-27 -85 -49 -86 -49 -1 0 -42 -24 -91 -53 -49 -29 -96 -56 -104 -60 -8 -4 -31
-17 -50 -28 -46 -28 -545 -316 -590 -341 -19 -11 -95 -55 -169 -98 l-135 -77
-75 44 c-42 25 -98 58 -126 73 -27 15 -96 55 -153 89 -57 34 -107 61 -112 61
-5 0 -10 3 -12 8 -1 4 -16 14 -33 23 -16 8 -136 77 -265 151 -129 75 -253 143
-275 153 -84 35 -176 66 -212 70 -21 3 -47 7 -58 9 -11 3 -33 5 -50 5 -28 1
-27 3 28 36 32 19 60 35 62 35 3 0 29 16 59 35 30 19 57 35 59 35 4 0 308 174
367 209 24 15 924 534 1064 613 91 53 143 73 191 77 22 2 41 4 43 6 7 6 138
-6 177 -16z m1140 -785 c-9 -14 -31 -51 -47 -83 -17 -31 -36 -63 -42 -71 -7
-8 -18 -28 -26 -45 -8 -16 -18 -32 -21 -35 -3 -3 -14 -21 -24 -40 -10 -19
-116 -204 -235 -410 -216 -373 -379 -655 -620 -1075 -70 -121 -255 -443 -412
-715 -157 -272 -297 -515 -311 -540 -13 -24 -29 -46 -33 -47 -7 -2 -9 1006 -4
1967 l0 95 58 33 c31 17 80 45 107 61 28 16 84 48 125 71 83 47 286 165 310
180 14 8 101 59 175 100 17 10 71 41 120 70 50 29 104 60 120 70 17 9 104 60
195 112 91 53 181 105 200 115 19 11 109 63 200 116 91 53 169 96 174 96 4 1
1 -11 -9 -25z m90 -1053 l0 -1030 -78 -45 c-43 -25 -82 -46 -88 -46 -5 0 -9
-4 -9 -10 0 -5 -4 -10 -10 -10 -7 0 -636 -358 -720 -410 -14 -8 -160 -93 -225
-130 -16 -10 -133 -77 -260 -150 -126 -73 -243 -141 -260 -150 -16 -10 -54
-31 -82 -48 -56 -33 -66 -28 -34 16 10 15 37 61 60 102 23 41 53 93 66 115 14
22 28 47 32 55 4 8 33 59 65 113 32 54 58 101 58 103 0 2 12 23 26 46 15 23
38 62 53 88 80 140 153 267 161 280 6 8 82 141 171 295 156 271 263 457 284
493 19 32 73 127 93 162 11 19 83 145 161 279 77 134 141 245 141 247 0 2 15
27 33 56 19 29 47 78 64 108 17 30 55 98 85 150 31 52 88 152 129 223 40 70
76 127 79 127 3 0 5 -463 5 -1029z m-3164 711 c58 -15 179 -63 239 -96 30 -16
248 -141 483 -278 236 -136 433 -248 438 -248 5 0 9 -3 9 -8 0 -4 10 -12 23
-17 l22 -10 1 -1078 c1 -827 -2 -1077 -11 -1073 -6 2 -194 109 -416 236 -222
128 -422 243 -444 255 -319 183 -605 504 -797 895 -71 145 -140 345 -164 480
-3 14 -7 32 -9 40 -26 94 -27 384 -2 490 28 117 76 216 138 285 96 104 206
147 364 140 50 -3 106 -8 126 -13z"/>
</g>
</svg>
