<?xml version="1.0" encoding="utf-8"?>
<!-- Generator: Adobe Illustrator 19.0.0, SVG Export Plug-In . SVG Version: 6.00 Build 0)  -->
<svg version="1.1" id="Layer_1" xmlns="http://www.w3.org/2000/svg" xmlns:xlink="http://www.w3.org/1999/xlink" x="0px" y="0px"
	 viewBox="0 0 134 136" style="enable-background:new 0 0 134 136;" xml:space="preserve">
<style type="text/css">
	.st0{fill:none;stroke:#000000;stroke-width:2;stroke-linecap:round;stroke-linejoin:round;stroke-miterlimit:10;}
</style>
<g id="XMLID_19_">
	<line id="XMLID_36_" class="st0" x1="66.2" y1="119.9" x2="66.2" y2="119.9"/>
	<line id="XMLID_35_" class="st0" x1="114.9" y1="91.8" x2="114.9" y2="91.8"/>
	<line id="XMLID_34_" class="st0" x1="66.2" y1="63.6" x2="66.2" y2="63.6"/>
	<line id="XMLID_33_" class="st0" x1="114.9" y1="35.5" x2="114.9" y2="35.5"/>
	<line id="XMLID_32_" class="st0" x1="41.8" y1="49.5" x2="41.8" y2="49.5"/>
	<line id="XMLID_31_" class="st0" x1="41.8" y1="105.9" x2="41.8" y2="105.9"/>
	<line id="XMLID_30_" class="st0" x1="90.5" y1="77.7" x2="90.5" y2="77.7"/>
	<line id="XMLID_29_" class="st0" x1="90.5" y1="21.4" x2="90.5" y2="21.4"/>
	<polyline id="XMLID_28_" class="st0" points="72.7,20.1 73.9,19.4 75.2,18.8 76.5,18.4 77.9,18.2 79.3,18.1 80.8,18.1 82.4,18.3 
		84,18.7 85.6,19.1 87.2,19.8 88.9,20.5 90.5,21.4 	"/>
	<line id="XMLID_27_" class="st0" x1="90.5" y1="21.4" x2="114.9" y2="35.5"/>
	<line id="XMLID_26_" class="st0" x1="114.9" y1="35.5" x2="114.9" y2="91.8"/>
	<polyline id="XMLID_25_" class="st0" points="66.2,63.6 114.9,35.5 66.2,119.9 66.2,63.6 	"/>
	<line id="XMLID_24_" class="st0" x1="66.2" y1="119.9" x2="114.9" y2="91.8"/>
	<line id="XMLID_23_" class="st0" x1="66.2" y1="119.9" x2="41.8" y2="105.9"/>
	<line id="XMLID_22_" class="st0" x1="41.8" y1="49.5" x2="66.2" y2="63.6"/>
	<polyline id="XMLID_21_" class="st0" points="41.8,105.9 40.2,104.8 38.5,103.7 36.9,102.4 35.3,101 33.7,99.5 32.1,97.9 
		30.6,96.2 29.2,94.4 27.8,92.6 26.4,90.7 25.2,88.7 24,86.6 22.9,84.5 21.9,82.4 21,80.3 20.2,78.2 19.5,76 18.9,73.9 18.4,71.8 
		18,69.6 17.7,67.6 17.5,65.6 17.5,63.6 17.5,61.7 17.7,59.9 18,58.2 18.4,56.5 18.9,55 19.5,53.6 20.2,52.2 21,51 21.9,50 22.9,49 
		24,48.2 25.2,47.5 26.4,47 27.8,46.6 29.2,46.4 30.6,46.2 32.1,46.3 33.7,46.5 35.3,46.8 36.9,47.3 38.5,47.9 40.2,48.6 41.8,49.5 
			"/>
	<line id="XMLID_20_" class="st0" x1="24.1" y1="48.1" x2="72.7" y2="20.1"/>
</g>
</svg>
