<?xml version="1.0" encoding="utf-8"?>
<!-- Generator: Adobe Illustrator 19.2.0, SVG Export Plug-In . SVG Version: 6.00 Build 0)  -->
<svg version="1.1" id="Capa_1" xmlns="http://www.w3.org/2000/svg" xmlns:xlink="http://www.w3.org/1999/xlink" x="0px" y="0px"
	 viewBox="0 0 512 512" style="enable-background:new 0 0 512 512;" xml:space="preserve">
<style type="text/css">
	.st0{fill:#E2E2C7;}
</style>
<path d="M201.1,0H18.3C8.2,0,0,8.2,0,18.3v182.9c0,10.1,8.2,18.3,18.3,18.3h182.9c10.1,0,18.3-8.2,18.3-18.3v-54.9v-128
	C219.4,8.2,211.2,0,201.1,0z M182.9,182.9H36.6V36.6h146.3V182.9z"/>
<path d="M201.1,292.6H18.3C8.2,292.6,0,300.8,0,310.9v182.9C0,503.8,8.2,512,18.3,512h182.9c10.1,0,18.3-8.2,18.3-18.3V310.9
	C219.4,300.8,211.2,292.6,201.1,292.6z M182.9,475.4H36.6V329.1h146.3V475.4z"/>
<path d="M493.7,292.6h-128h-54.9c-10.1,0-18.3,8.2-18.3,18.3v182.9c0,10.1,8.2,18.3,18.3,18.3h182.9c10.1,0,18.3-8.2,18.3-18.3
	V310.9C512,300.8,503.8,292.6,493.7,292.6z M475.4,475.4H329.1V329.1h146.3V475.4z"/>
<path d="M506.6,159.2c7.1-7.1,7.1-18.7,0-25.9l-128-128c-7.1-7.1-18.7-7.1-25.9,0l-128,128c-3.6,3.6-5.4,8.2-5.4,12.9
	c0,4.7,1.8,9.4,5.4,12.9l128,128c3.6,3.6,8.2,5.4,12.9,5.4c4.7,0,9.4-1.8,12.9-5.4L506.6,159.2L506.6,159.2z M263.6,146.3
	L365.7,44.1l102.1,102.1L365.7,248.4L263.6,146.3L263.6,146.3z"/>
<rect x="36.6" y="36.6" class="st0" width="146.3" height="146.3"/>
<rect x="36.6" y="329.1" class="st0" width="146.3" height="146.3"/>
<rect x="329.1" y="329.1" class="st0" width="146.3" height="146.3"/>
<rect x="292.6" y="73.1" transform="matrix(0.7071 -0.7071 0.7071 0.7071 3.6755 301.4451)" class="st0" width="146.3" height="146.3"/>
</svg>
